<svg width="100" height="100" xmlns="http://www.w3.org/2000/svg">
  <defs>
    <pattern id="medical-pattern" patternUnits="userSpaceOnUse" width="100" height="100">
      <rect width="100" height="100" fill="none"/>
      
      <!-- Subtle cross shapes -->
      <path d="M20,40 L20,60 M10,50 L30,50" stroke="#003087" stroke-width="1" stroke-opacity="0.2"/>
      <path d="M70,20 L70,40 M60,30 L80,30" stroke="#003087" stroke-width="1" stroke-opacity="0.2"/>
      <path d="M80,70 L80,90 M70,80 L90,80" stroke="#003087" stroke-width="1" stroke-opacity="0.2"/>
      
      <!-- Circular elements (like cells) -->
      <circle cx="50" cy="50" r="3" fill="none" stroke="#e6c378" stroke-width="0.5" stroke-opacity="0.3"/>
      <circle cx="20" cy="80" r="2" fill="none" stroke="#e6c378" stroke-width="0.5" stroke-opacity="0.3"/>
      <circle cx="80" cy="20" r="2" fill="none" stroke="#e6c378" stroke-width="0.5" stroke-opacity="0.3"/>
      
      <!-- Abstract elements -->
      <path d="M40,10 Q50,0 60,10" fill="none" stroke="#003087" stroke-width="0.5" stroke-opacity="0.15"/>
      <path d="M10,40 Q0,50 10,60" fill="none" stroke="#003087" stroke-width="0.5" stroke-opacity="0.15"/>
      <path d="M90,40 Q100,50 90,60" fill="none" stroke="#003087" stroke-width="0.5" stroke-opacity="0.15"/>
      <path d="M40,90 Q50,100 60,90" fill="none" stroke="#003087" stroke-width="0.5" stroke-opacity="0.15"/>
    </pattern>
  </defs>
  
  <rect width="100" height="100" fill="url(#medical-pattern)"/>
</svg>